<?xml version="1.0" encoding="UTF-8"?>
<svg width="16px" height="16px" viewBox="0 0 16 16" version="1.1" xmlns="http://www.w3.org/2000/svg" xmlns:xlink="http://www.w3.org/1999/xlink">
    <!-- Generator: Sketch 51.2 (57519) - http://www.bohemiancoding.com/sketch -->
    <title>buttom_book</title>
    <desc>Created with Sketch.</desc>
    <defs></defs>
    <g id="Page-1" stroke="none" stroke-width="1" fill="none" fill-rule="evenodd">
        <g id="A1_场馆预约" transform="translate(-282.000000, -969.000000)" fill="#FFFFFF" fill-rule="nonzero">
            <g id="Group-2" transform="translate(14.000000, 304.000000)">
                <g id="card_2" transform="translate(0.000000, 540.000000)">
                    <g id="buttom_book" transform="translate(251.000000, 118.000000)">
                        <g id="Group" transform="translate(17.000000, 7.000000)">
                            <path d="M13.6296126,1.28491179 L11.9229504,1.28491179 L11.9229504,0.362832711 C11.9229503,0.162445747 11.7637628,2.16265148e-08 11.5673951,2.16265148e-08 C11.3710274,2.16265148e-08 11.2118399,0.162445747 11.2118399,0.362832711 L11.2118399,1.28491179 L4.64758309,1.28491179 L4.64758309,0.362832711 C4.64758309,0.162445738 4.48839559,1.22701633e-17 4.29202786,0 C4.09566012,-1.22701633e-17 3.93647262,0.162445738 3.93647262,0.362832711 L3.93647262,1.28491179 L2.37037303,1.28491179 C1.06184575,1.28637306 0.00143195767,2.36849131 0,3.70380142 L0,12.5811104 C0.00143195767,13.9164205 1.06184575,14.9985387 2.37037303,15 L13.629627,15 C14.9381543,14.9985387 15.998568,13.9164205 16,12.5811104 L16,3.70380142 C15.998568,2.36849131 14.9381543,1.28637306 13.629627,1.28491179 L13.6296126,1.28491179 Z M2.37035867,2.25246618 L3.93645826,2.25246618 L3.93645826,3.22776091 C3.93645826,3.42814789 4.09564577,3.59059363 4.2920135,3.59059363 C4.48838124,3.59059363 4.64756874,3.42814789 4.64756874,3.22776091 L4.64756874,2.25246618 L11.2118399,2.25246618 L11.2118399,3.22776091 C11.2118399,3.42814788 11.3710274,3.5905936 11.5673951,3.5905936 C11.7637628,3.5905936 11.9229503,3.42814788 11.9229504,3.22776091 L11.9229504,2.25246618 L13.6296126,2.25246618 C14.4147045,2.25339932 15.0509191,2.90263597 15.0518336,3.70379702 L15.0518336,5.45047419 L0.948147776,5.45047419 L0.948147776,3.70379702 C0.949062207,2.90263597 1.58527686,2.25339932 2.37036872,2.25246618 L2.37035867,2.25246618 Z M13.6296126,14.0324368 L2.37037303,14.0324368 C1.58528117,14.0315037 0.949066513,13.382267 0.948152082,12.581106 L0.948152082,6.17613961 L15.0518479,6.17613961 L15.0518479,12.5813404 C15.0509335,13.3825014 14.4147188,14.0317381 13.629627,14.0326712 L13.6296126,14.0324368 Z M10.4437778,8.11221553 L7.92172147,11.0751137 L6.55611451,9.47014869 C6.47379201,9.37345749 6.35382503,9.33571958 6.24140397,9.37115047 C6.12898292,9.40658135 6.04118722,9.50979823 6.01108866,9.64192031 C5.98099011,9.77404239 6.01316139,9.91499717 6.09548389,10.0116884 L7.69216504,11.8879201 C7.81937585,12.03736 8.02558485,12.03736 8.15279566,11.8879201 L10.904632,8.65347856 C11.0318317,8.50393651 11.0317831,8.26153803 10.9045235,8.11206639 C10.777264,7.96259476 10.570984,7.96265184 10.4437844,8.11219389 L10.4437778,8.11221553 Z" id="icon_booking"></path>
                        </g>
                    </g>
                </g>
            </g>
        </g>
    </g>
</svg>