<?xml version="1.0" encoding="UTF-8"?>
<svg width="14px" height="14px" viewBox="0 0 14 14" version="1.1" xmlns="http://www.w3.org/2000/svg" xmlns:xlink="http://www.w3.org/1999/xlink">
    <!-- Generator: Sketch 51.2 (57519) - http://www.bohemiancoding.com/sketch -->
    <title>icon_edit</title>
    <desc>Created with Sketch.</desc>
    <defs></defs>
    <g id="Page-1" stroke="none" stroke-width="1" fill="none" fill-rule="evenodd">
        <g id="C2_个人资料页" transform="translate(-334.000000, -263.000000)" fill="#979797" fill-rule="nonzero">
            <g id="Group-2" transform="translate(32.000000, 262.000000)">
                <g id="icon_edit" transform="translate(302.000000, 1.000000)">
                    <rect id="Rectangle-path" opacity="0" x="0" y="0" width="14" height="14"></rect>
                    <path d="M10.605,14 L2.625,14 C1.65850169,14 0.875,13.2164983 0.875,12.25 L0.875,3.5 C0.875,2.53350169 1.65850169,1.75 2.625,1.75 L7.945,1.75 C8.42824916,1.75 8.82,2.14175084 8.82,2.625 C8.82,3.10824916 8.42824916,3.5 7.945,3.5 L2.625,3.5 L2.625,12.25 L10.605,12.25 L10.605,7.875 C10.605,7.39175084 10.9967508,7 11.48,7 C11.9632492,7 12.355,7.39175084 12.355,7.875 L12.355,12.25 C12.355,13.2164983 11.5714983,14 10.605,14 Z" id="Shape"></path>
                    <path d="M6.5625,9.8875 C6.37274272,9.75221899 6.24479041,9.54683028 6.2070113,9.31687047 C6.16923219,9.08691065 6.22474787,8.85138077 6.36125,8.6625 L11.61125,1.05 C11.6827148,0.951453838 11.791336,0.886379873 11.9119412,0.869858611 C12.0325465,0.853337348 12.1546662,0.886802964 12.25,0.9625 L12.95,1.47 C13.1472598,1.61550416 13.1902331,1.89287723 13.04625,2.09125 L7.79625,9.70375 C7.65818688,9.89330683 7.44981277,10.0195115 7.21786486,10.0540569 C6.98591695,10.0886023 6.74980945,10.0285971 6.5625,9.8875 Z" id="Shape"></path>
                </g>
            </g>
        </g>
    </g>
</svg>