<?xml version="1.0" encoding="UTF-8"?>
<svg width="12px" height="14px" viewBox="0 0 12 14" version="1.1" xmlns="http://www.w3.org/2000/svg" xmlns:xlink="http://www.w3.org/1999/xlink">
    <!-- Generator: Sketch 51.2 (57519) - http://www.bohemiancoding.com/sketch -->
    <title>icon_introduction</title>
    <desc>Created with Sketch.</desc>
    <defs></defs>
    <g id="Page-1" stroke="none" stroke-width="1" fill="none" fill-rule="evenodd">
        <g id="B2_活动列表/活动详情" transform="translate(-18.000000, -281.000000)" fill="#FF201F" fill-rule="nonzero">
            <g id="Group-3" transform="translate(16.000000, 280.000000)">
                <g id="Group">
                    <g id="icon_introduction">
                        <rect id="Rectangle-path" opacity="0" x="0" y="0" width="16" height="16"></rect>
                        <path d="M12.4975,2.25 L10.5,2.25 L10.5,2 C10.5,1.72385763 10.2761424,1.5 10,1.5 C9.72385763,1.5 9.5,1.72385763 9.5,2 L9.5,2.25 L6.5,2.25 L6.5,2 C6.5,1.72385763 6.27614237,1.5 6,1.5 C5.72385763,1.5 5.5,1.72385763 5.5,2 L5.5,2.25 L3.4955,2.25 C2.9465,2.25 2.5,2.719 2.5,3.2955 L2.5,4.75 L13.5,4.75 L13.5,3.2955 C13.5,2.719 13.0505,2.25 12.4975,2.25 Z M10,7.75 C10.2761424,7.75 10.5,7.97385763 10.5,8.25 C10.5,8.52614237 10.2761424,8.75 10,8.75 L6,8.75 C5.72385763,8.75 5.5,8.52614237 5.5,8.25 C5.5,7.97385763 5.72385763,7.75 6,7.75 L10,7.75 Z M5.5,10.75 C5.5,10.4738576 5.72385763,10.25 6,10.25 L10,10.25 C10.2761424,10.25 10.5,10.4738576 10.5,10.75 C10.5,11.0261424 10.2761424,11.25 10,11.25 L6,11.25 C5.72385763,11.25 5.5,11.0261424 5.5,10.75 Z M13,5.75 L2.5,5.75 L2.5,13.205 C2.5,13.781 2.947,14.25 3.496,14.25 L12.504,14.25 C13.053,14.25 13.5,13.781 13.5,13.205 L13.5,5.75 L13,5.75 Z" id="Shape"></path>
                    </g>
                </g>
            </g>
        </g>
    </g>
</svg>