<?xml version="1.0" encoding="UTF-8"?>
<svg width="10px" height="14px" viewBox="0 0 10 14" version="1.1" xmlns="http://www.w3.org/2000/svg" xmlns:xlink="http://www.w3.org/1999/xlink">
    <!-- Generator: Sketch 51.2 (57519) - http://www.bohemiancoding.com/sketch -->
    <title>icon_location</title>
    <desc>Created with Sketch.</desc>
    <defs></defs>
    <g id="Page-1" stroke="none" stroke-width="1" fill="none" fill-rule="evenodd">
        <g id="A2_场馆预约/场馆预约" transform="translate(-19.000000, -383.000000)" fill="#FF201F">
            <g id="Group-15" transform="translate(10.000000, 280.000000)">
                <g id="Group-2" transform="translate(6.000000, 0.000000)">
                    <g id="icon_location" transform="translate(0.000000, 102.000000)">
                        <rect id="Rectangle-path" fill-rule="nonzero" opacity="0" x="0" y="0" width="16" height="16"></rect>
                        <path d="M8,15 L7.65510882,14.752899 C7.46514201,14.6159829 3,11.3528152 3,6.30256601 C3,3.37842872 5.24332964,1 8,1 C10.7572851,1 13,3.37842872 13,6.30256601 C13,11.3528152 8.53485799,14.6166348 8.34489118,14.752899 L8,15 Z M5.92207792,6 C5.92207792,7.1030119 6.79626069,8 7.87012987,8 C8.94449211,8 9.81818182,7.1030119 9.81818182,6 C9.81818182,4.8969881 8.94449211,4 7.87012987,4 C6.79626069,4 5.92207792,4.8969881 5.92207792,6 Z" id="Combined-Shape"></path>
                    </g>
                </g>
            </g>
        </g>
    </g>
</svg>