<?xml version="1.0" encoding="UTF-8"?>
<svg width="13px" height="14px" viewBox="0 0 13 14" version="1.1" xmlns="http://www.w3.org/2000/svg" xmlns:xlink="http://www.w3.org/1999/xlink">
    <!-- Generator: Sketch 51.2 (57519) - http://www.bohemiancoding.com/sketch -->
    <title>icon_activity</title>
    <desc>Created with Sketch.</desc>
    <defs></defs>
    <g id="Page-1" stroke="none" stroke-width="1" fill="none" fill-rule="evenodd">
        <g id="B2_活动列表/活动详情" transform="translate(-18.000000, -462.000000)" fill-rule="nonzero">
            <g id="Group-3" transform="translate(16.000000, 280.000000)">
                <g id="Group-2" transform="translate(0.000000, 181.000000)">
                    <g id="icon_activity">
                        <rect id="Rectangle-path" fill="#000000" opacity="0" x="0" y="0" width="16" height="16"></rect>
                        <path d="M9.58631035,1.96551723 L9.58631035,1.72413793 C9.58631035,1.3242076 9.26210276,1 8.86217242,1 L2.96551725,1 C2.4322768,1 2.00000001,1.43227679 2,1.96551723 L2,14.2758621 C2,14.6757924 2.3242076,15 2.72413793,15 C3.12406827,15 3.44827586,14.6757924 3.44827586,14.2758621 L3.44827586,9.68965518 C3.44827586,9.15641473 3.88055266,8.72413793 4.41379311,8.72413793 L6.7240345,8.72413793 C6.91608782,8.72413793 7.10027513,8.80043082 7.23607734,8.93623302 C7.37187954,9.07203523 7.44817243,9.25622254 7.44817243,9.44827586 L7.44817243,9.68965518 C7.44817243,9.8817085 7.52446531,10.0658958 7.66026752,10.201698 C7.79606972,10.3375002 7.98025704,10.4137931 8.17231036,10.4137931 L13.1034483,10.4137931 C13.6366887,10.4137931 14.0689655,9.98151631 14.0689655,9.44827586 L14.0689655,3.65517241 C14.0689655,3.12193196 13.6366887,2.68965516 13.1034483,2.68965516 L10.3104483,2.68965516 C9.91051795,2.68965516 9.58631035,2.36544757 9.58631035,1.96551723 Z" id="Shape" fill="#FF201F"></path>
                    </g>
                </g>
            </g>
        </g>
    </g>
</svg>