<?xml version="1.0" encoding="UTF-8"?>
<svg width="15px" height="13px" viewBox="0 0 15 13" version="1.1" xmlns="http://www.w3.org/2000/svg" xmlns:xlink="http://www.w3.org/1999/xlink">
    <!-- Generator: Sketch 51.2 (57519) - http://www.bohemiancoding.com/sketch -->
    <title>icon_note</title>
    <desc>Created with Sketch.</desc>
    <defs></defs>
    <g id="Page-1" stroke="none" stroke-width="1" fill="none" fill-rule="evenodd">
        <g id="A3_场馆预约/场馆预约/场馆介绍" transform="translate(-17.000000, -446.000000)" fill="#FF201F" fill-rule="nonzero">
            <g id="Group-3" transform="translate(16.000000, 216.000000)">
                <g id="Group-2" transform="translate(0.000000, 228.000000)">
                    <g id="icon_note" transform="translate(0.000000, 1.000000)">
                        <rect id="Rectangle-path" opacity="0" x="0" y="0" width="16" height="16"></rect>
                        <path d="M15.1865755,1.71015252 C15.1299739,1.39863572 14.9318842,1.22883086 14.5920186,1.22883086 L1.82120522,1.22883086 C1.79288842,1.22883086 1.7362868,1.22883086 1.67968517,1.25690783 C1.36818438,1.31352544 1.2266963,1.51183897 1.2266963,1.85186444 L1.2266963,9.55350672 C1.31158275,9.86502352 1.50968842,10.0918457 1.82120522,10.1765403 L9.04197353,10.1765403 L9.04197353,12.7251963 C9.12689195,13.0647261 9.32539737,13.2630716 9.66500711,13.3481819 C9.83503583,13.3196732 9.98790819,13.2736085 10.117996,13.1217914 L12.6383352,10.1765403 L14.5920346,10.1765403 C14.6203514,10.1765403 14.6771449,10.1765403 14.7337465,10.1484474 C15.0452473,10.0918457 15.2150842,9.89354819 15.2150842,9.55350673 L15.2150842,1.85186444 C15.2150842,1.82335577 15.2150842,1.76675414 15.1865755,1.71015252 Z M9.48356214,7.82472683 C9.41501661,7.85924742 9.34647109,7.85924742 9.31219033,7.85924742 L9.31219033,7.85927941 L3.96311302,7.85927941 C3.5858648,7.75621328 3.34572361,7.48204717 3.24288133,7.10481494 C3.24288133,6.69360573 3.41425314,6.45343258 3.79148537,6.38488705 C3.86027073,6.35038244 3.92880028,6.35038244 3.96309702,6.35038244 L9.3122383,6.35038244 C9.72402311,6.35038244 9.96387648,6.55649869 10.032406,6.9331873 C10.0669426,7.00173283 10.0669426,7.07024637 10.0669426,7.10479894 C10.0669426,7.51656777 9.86108219,7.75618131 9.48356214,7.82472683 Z M9.48356214,4.72882586 C9.41501661,4.76337844 9.34647109,4.76337844 9.31219033,4.76337844 L3.96311302,4.76337842 C3.5858648,4.6603123 3.34572361,4.38561855 3.24288133,4.00889795 C3.24288133,3.59714512 3.41425314,3.35698795 3.79148537,3.28844242 C3.86027073,3.25448145 3.92880028,3.25448145 3.96309702,3.25448145 L9.3122383,3.25448145 C9.72402311,3.25448145 9.96387648,3.46005408 10.032406,3.8373023 C10.0669426,3.90584783 10.0669426,3.97439334 10.0669426,4.00889795 C10.0669426,4.42013914 9.86108219,4.66029631 9.48356214,4.72882586 Z M12.0213295,7.8247748 C11.9525122,7.85929539 11.8839667,7.85929539 11.8497339,7.85929539 C11.4381889,7.85929539 11.1983355,7.65365881 11.1295821,7.27639459 C11.0952694,7.20789703 11.0952694,7.13880787 11.0952694,7.10481492 C11.0952694,6.69360572 11.3012258,6.45343256 11.6783621,6.38488703 C11.7469076,6.35035045 11.8154691,6.35035045 11.8497499,6.35035045 C12.2612629,6.35035045 12.501388,6.55649869 12.5699336,6.9331713 C12.6042143,7.00171683 12.6042143,7.07023037 12.6042143,7.10478294 C12.6041664,7.51656777 12.3985937,7.75618131 12.0213295,7.8247748 Z M12.0213295,4.72880986 C11.9525122,4.76336244 11.8839667,4.76336244 11.8497339,4.76336244 C11.4381889,4.76336244 11.1983355,4.55723019 11.1295821,4.17999795 C11.0952694,4.11145242 11.0952694,4.04292289 11.0952694,4.00889795 C11.0952694,3.59714512 11.3012258,3.35698795 11.6783621,3.28844242 C11.7469076,3.25448145 11.8154691,3.25448145 11.8497499,3.25448145 C12.2612629,3.25448145 12.501388,3.46005408 12.5699336,3.8373023 C12.6042143,3.90584783 12.6042143,3.97439334 12.6042143,4.00889795 C12.6041664,4.42013914 12.3985937,4.66031231 12.0213295,4.72880986 Z" id="Shape"></path>
                    </g>
                </g>
            </g>
        </g>
    </g>
</svg>